<svg width="26" height="26" viewBox="0 0 26 26" fill="none" xmlns="http://www.w3.org/2000/svg">
<path d="M13.2652 10.6364V15.6709H20.4045C20.091 17.29 19.1502 18.661 17.7393 19.5828L22.0445 22.8564C24.5529 20.5874 26 17.2546 26 13.2956C26 12.3738 25.9156 11.4873 25.7588 10.6365L13.2652 10.6364Z" fill="#4285F4"/>
<path d="M5.83091 15.4744L4.85992 16.2028L1.4229 18.8264C3.60567 23.0691 8.07941 26 13.265 26C16.8465 26 19.8493 24.8418 22.0442 22.8564L17.739 19.5828C16.5571 20.3627 15.0497 20.8355 13.265 20.8355C9.81596 20.8355 6.88558 18.5546 5.83633 15.4819L5.83091 15.4744Z" fill="#34A853"/>
<path d="M1.42292 7.17358C0.518505 8.9226 0 10.8963 0 12.9999C0 15.1035 0.518505 17.0771 1.42292 18.8262C1.42292 18.8379 5.83677 15.4698 5.83677 15.4698C5.57147 14.6898 5.41465 13.8626 5.41465 12.9997C5.41465 12.1369 5.57147 11.3097 5.83677 10.5297L1.42292 7.17358Z" fill="#FBBC05"/>
<path d="M13.2652 5.17636C15.2189 5.17636 16.9554 5.83816 18.3423 7.11454L22.141 3.39186C19.8376 1.28826 16.8469 0 13.2652 0C8.07968 0 3.60567 2.91909 1.4229 7.17364L5.83662 10.53C6.88573 7.45725 9.81623 5.17636 13.2652 5.17636Z" fill="#EA4335"/>
</svg>
