<svg width="150" height="31" viewBox="0 0 150 31" fill="none" xmlns="http://www.w3.org/2000/svg">
<path d="M0.458801 24V0.727272H3.27698V21.5H14.0952V24H0.458801Z" fill="#1B4B6F"/>
<path d="M25.4133 24.3636C23.7315 24.3636 22.2808 23.9924 21.0611 23.25C19.849 22.5 18.9133 21.4545 18.2543 20.1136C17.6027 18.7652 17.277 17.197 17.277 15.4091C17.277 13.6212 17.6027 12.0455 18.2543 10.6818C18.9133 9.31061 19.83 8.24242 21.0043 7.47727C22.1861 6.70455 23.5649 6.31818 25.1406 6.31818C26.0497 6.31818 26.9474 6.4697 27.8338 6.77273C28.7202 7.07576 29.527 7.56818 30.2543 8.25C30.9815 8.92424 31.5611 9.81818 31.9929 10.9318C32.4247 12.0455 32.6406 13.4167 32.6406 15.0455V16.1818H19.1861V13.8636H29.9133C29.9133 12.8788 29.7164 12 29.3224 11.2273C28.9361 10.4545 28.383 9.8447 27.6633 9.39773C26.9512 8.95076 26.1103 8.72727 25.1406 8.72727C24.0724 8.72727 23.1482 8.99242 22.3679 9.52273C21.5952 10.0455 21.0005 10.7273 20.5838 11.5682C20.1671 12.4091 19.9588 13.3106 19.9588 14.2727V15.8182C19.9588 17.1364 20.1861 18.2538 20.6406 19.1705C21.1027 20.0795 21.7429 20.7727 22.5611 21.25C23.3793 21.7197 24.33 21.9545 25.4133 21.9545C26.1179 21.9545 26.7543 21.8561 27.3224 21.6591C27.8982 21.4545 28.3944 21.1515 28.8111 20.75C29.2277 20.3409 29.5497 19.8333 29.777 19.2273L32.3679 19.9545C32.0952 20.8333 31.6368 21.6061 30.9929 22.2727C30.349 22.9318 29.5535 23.447 28.6065 23.8182C27.6596 24.1818 26.5952 24.3636 25.4133 24.3636Z" fill="#1B4B6F"/>
<path d="M43.7656 30.9091C42.4702 30.9091 41.3565 30.7424 40.4247 30.4091C39.4929 30.0833 38.7164 29.6515 38.0952 29.1136C37.4815 28.5833 36.9929 28.0152 36.6293 27.4091L38.7656 25.9091C39.008 26.2273 39.3149 26.5909 39.6861 27C40.0573 27.4167 40.5649 27.7765 41.2088 28.0795C41.8603 28.3902 42.7126 28.5455 43.7656 28.5455C45.1747 28.5455 46.3376 28.2045 47.2543 27.5227C48.1709 26.8409 48.6293 25.7727 48.6293 24.3182V20.7727H48.402C48.205 21.0909 47.9247 21.4848 47.5611 21.9545C47.205 22.4167 46.6899 22.8295 46.0156 23.1932C45.349 23.5492 44.4474 23.7273 43.3111 23.7273C41.902 23.7273 40.6368 23.3939 39.5156 22.7273C38.402 22.0606 37.5194 21.0909 36.8679 19.8182C36.224 18.5455 35.902 17 35.902 15.1818C35.902 13.3939 36.2164 11.8371 36.8452 10.5114C37.474 9.17803 38.349 8.14773 39.4702 7.42045C40.5914 6.68561 41.8868 6.31818 43.3565 6.31818C44.4929 6.31818 45.3944 6.50758 46.0611 6.88636C46.7353 7.25758 47.2505 7.68182 47.6065 8.15909C47.9702 8.62879 48.2505 9.01515 48.4474 9.31818H48.7202V6.54545H51.3111V24.5C51.3111 26 50.9702 27.2197 50.2883 28.1591C49.6141 29.1061 48.705 29.7992 47.5611 30.2386C46.4247 30.6856 45.1596 30.9091 43.7656 30.9091ZM43.6747 21.3182C44.7505 21.3182 45.6596 21.072 46.402 20.5795C47.1444 20.0871 47.7088 19.3788 48.0952 18.4545C48.4815 17.5303 48.6747 16.4242 48.6747 15.1364C48.6747 13.8788 48.4853 12.7689 48.1065 11.8068C47.7277 10.8447 47.1671 10.0909 46.4247 9.54545C45.6823 9 44.7656 8.72727 43.6747 8.72727C42.5383 8.72727 41.5914 9.01515 40.8338 9.59091C40.0838 10.1667 39.5194 10.9394 39.1406 11.9091C38.7694 12.8788 38.5838 13.9545 38.5838 15.1364C38.5838 16.3485 38.7732 17.4205 39.152 18.3523C39.5383 19.2765 40.1065 20.0038 40.8565 20.5341C41.6141 21.0568 42.5535 21.3182 43.6747 21.3182Z" fill="#1B4B6F"/>
<path d="M56.2202 24V6.54545H58.902V24H56.2202ZM57.5838 3.63636C57.0611 3.63636 56.6103 3.45833 56.2315 3.10227C55.8603 2.74621 55.6747 2.31818 55.6747 1.81818C55.6747 1.31818 55.8603 0.890151 56.2315 0.53409C56.6103 0.17803 57.0611 0 57.5838 0C58.1065 0 58.5535 0.17803 58.9247 0.53409C59.3035 0.890151 59.4929 1.31818 59.4929 1.81818C59.4929 2.31818 59.3035 2.74621 58.9247 3.10227C58.5535 3.45833 58.1065 3.63636 57.5838 3.63636Z" fill="#1B4B6F"/>
<path d="M77.0994 10.4545L74.6903 11.1364C74.5388 10.7348 74.3153 10.3447 74.0199 9.96591C73.732 9.57955 73.3381 9.26136 72.8381 9.01136C72.3381 8.76136 71.6979 8.63636 70.9176 8.63636C69.8494 8.63636 68.9593 8.88258 68.2472 9.375C67.5426 9.85985 67.1903 10.4773 67.1903 11.2273C67.1903 11.8939 67.4328 12.4205 67.9176 12.8068C68.4025 13.1932 69.16 13.5152 70.1903 13.7727L72.7812 14.4091C74.3418 14.7879 75.5047 15.3674 76.2699 16.1477C77.035 16.9205 77.4176 17.9167 77.4176 19.1364C77.4176 20.1364 77.1297 21.0303 76.554 21.8182C75.9858 22.6061 75.1903 23.2273 74.1676 23.6818C73.1449 24.1364 71.9555 24.3636 70.5994 24.3636C68.8191 24.3636 67.3456 23.9773 66.179 23.2045C65.0123 22.4318 64.2737 21.303 63.9631 19.8182L66.5085 19.1818C66.7509 20.1212 67.2093 20.8258 67.8835 21.2955C68.5653 21.7652 69.4555 22 70.554 22C71.804 22 72.7964 21.7348 73.5312 21.2045C74.2737 20.6667 74.6449 20.0227 74.6449 19.2727C74.6449 18.6667 74.4328 18.1591 74.0085 17.75C73.5843 17.3333 72.9328 17.0227 72.054 16.8182L69.1449 16.1364C67.5464 15.7576 66.3722 15.1705 65.6222 14.375C64.8797 13.572 64.5085 12.5682 64.5085 11.3636C64.5085 10.3788 64.785 9.50758 65.3381 8.75C65.8987 7.99242 66.66 7.39773 67.6222 6.96591C68.5919 6.53409 69.6903 6.31818 70.9176 6.31818C72.6449 6.31818 74.0009 6.69697 74.9858 7.45454C75.9782 8.21212 76.6828 9.21212 77.0994 10.4545Z" fill="#990000"/>
<path d="M85.4091 24L80.0909 6.54545H82.9091L86.6818 19.9091H86.8636L90.5909 6.54545H93.4545L97.1364 19.8636H97.3182L101.091 6.54545H103.909L98.5909 24H95.9545L92.1364 10.5909H91.8636L88.0454 24H85.4091Z" fill="#990000"/>
<path d="M107.455 24V6.54545H110.136V24H107.455ZM108.818 3.63636C108.295 3.63636 107.845 3.45833 107.466 3.10227C107.095 2.74621 106.909 2.31818 106.909 1.81818C106.909 1.31818 107.095 0.890151 107.466 0.53409C107.845 0.17803 108.295 0 108.818 0C109.341 0 109.788 0.17803 110.159 0.53409C110.538 0.890151 110.727 1.31818 110.727 1.81818C110.727 2.31818 110.538 2.74621 110.159 3.10227C109.788 3.45833 109.341 3.63636 108.818 3.63636Z" fill="#990000"/>
<path d="M115.048 30.5455V6.54545H117.639V9.31818H117.957C118.154 9.01515 118.427 8.62879 118.776 8.15909C119.132 7.68182 119.639 7.25758 120.298 6.88636C120.965 6.50758 121.866 6.31818 123.003 6.31818C124.473 6.31818 125.768 6.68561 126.889 7.42045C128.01 8.1553 128.885 9.19697 129.514 10.5455C130.143 11.8939 130.457 13.4848 130.457 15.3182C130.457 17.1667 130.143 18.7689 129.514 20.125C128.885 21.4735 128.014 22.5189 126.901 23.2614C125.787 23.9962 124.503 24.3636 123.048 24.3636C121.927 24.3636 121.029 24.178 120.355 23.8068C119.681 23.428 119.162 23 118.798 22.5227C118.435 22.0379 118.154 21.6364 117.957 21.3182H117.73V30.5455H115.048ZM117.685 15.2727C117.685 16.5909 117.878 17.7538 118.264 18.7614C118.651 19.7614 119.215 20.5455 119.957 21.1136C120.7 21.6742 121.609 21.9545 122.685 21.9545C123.806 21.9545 124.741 21.6591 125.491 21.0682C126.249 20.4697 126.817 19.6667 127.196 18.6591C127.582 17.6439 127.776 16.5152 127.776 15.2727C127.776 14.0455 127.586 12.9394 127.207 11.9545C126.836 10.9621 126.272 10.178 125.514 9.60227C124.764 9.01894 123.821 8.72727 122.685 8.72727C121.594 8.72727 120.677 9.00379 119.935 9.55682C119.192 10.1023 118.632 10.8674 118.253 11.8523C117.874 12.8295 117.685 13.9697 117.685 15.2727Z" fill="#990000"/>
<path d="M141.866 24.3636C140.185 24.3636 138.734 23.9924 137.514 23.25C136.302 22.5 135.366 21.4545 134.707 20.1136C134.056 18.7652 133.73 17.197 133.73 15.4091C133.73 13.6212 134.056 12.0455 134.707 10.6818C135.366 9.31061 136.283 8.24242 137.457 7.47727C138.639 6.70455 140.018 6.31818 141.594 6.31818C142.503 6.31818 143.401 6.4697 144.287 6.77273C145.173 7.07576 145.98 7.56818 146.707 8.25C147.435 8.92424 148.014 9.81818 148.446 10.9318C148.878 12.0455 149.094 13.4167 149.094 15.0455V16.1818H135.639V13.8636H146.366C146.366 12.8788 146.169 12 145.776 11.2273C145.389 10.4545 144.836 9.8447 144.116 9.39773C143.404 8.95076 142.563 8.72727 141.594 8.72727C140.526 8.72727 139.601 8.99242 138.821 9.52273C138.048 10.0455 137.454 10.7273 137.037 11.5682C136.62 12.4091 136.412 13.3106 136.412 14.2727V15.8182C136.412 17.1364 136.639 18.2538 137.094 19.1705C137.556 20.0795 138.196 20.7727 139.014 21.25C139.832 21.7197 140.783 21.9545 141.866 21.9545C142.571 21.9545 143.207 21.8561 143.776 21.6591C144.351 21.4545 144.848 21.1515 145.264 20.75C145.681 20.3409 146.003 19.8333 146.23 19.2273L148.821 19.9545C148.548 20.8333 148.09 21.6061 147.446 22.2727C146.802 22.9318 146.007 23.447 145.06 23.8182C144.113 24.1818 143.048 24.3636 141.866 24.3636Z" fill="#990000"/>
</svg>
